<?xml version="1.0" encoding="UTF-8" standalone="no"?>
<!-- Created with Inkscape (http://www.inkscape.org/) -->
<svg
   xmlns:a="http://ns.adobe.com/AdobeSVGViewerExtensions/3.0/"
   xmlns:svg="http://www.w3.org/2000/svg"
   xmlns="http://www.w3.org/2000/svg"
   xmlns:xlink="http://www.w3.org/1999/xlink"
   version="1.0"
   width="256"
   height="256"
   id="svg2">
  <defs
     id="defs4">
    <linearGradient
       x1="-406.5"
       y1="512.5"
       x2="-406.5"
       y2="278.5"
       id="linearGradient2523"
       xlink:href="#XMLID_7_"
       gradientUnits="userSpaceOnUse"
       gradientTransform="matrix(1,0,0,-1,535.5,523.5)" />
    <linearGradient
       x1="-506.4473"
       y1="494.4473"
       x2="-308.55249"
       y2="296.55249"
       id="linearGradient2525"
       xlink:href="#XMLID_8_"
       gradientUnits="userSpaceOnUse"
       gradientTransform="matrix(1,0,0,-1,535.5,523.5)" />
    <desc
       id="desc2412">Slide</desc>
    <desc
       id="desc2409">Master slide</desc>
  </defs>
  <g
     id="Layer_1">
    <path
       d="M 44,15.5 C 34.626,15.5 27,23.126 27,32.5 L 27,232.5 C 27,241.874 34.626,249.5 44,249.5 L 220,249.5 C 229.375,249.5 237,241.874 237,232.5 L 237,32.5 C 237,23.126 229.375,15.5 220,15.5 L 44,15.5 z"
       id="path1158"
       style="opacity:0.2" />
    <path
       d="M 42,13.5 C 32.626,13.5 25,21.126 25,30.5 L 25,230.5 C 25,239.874 32.626,247.5 42,247.5 L 218,247.5 C 227.375,247.5 235,239.874 235,230.5 L 235,30.5 C 235,21.126 227.375,13.5 218,13.5 L 42,13.5 z"
       id="path1159"
       style="opacity:0.2" />
    <path
       d="M 40,12.5 C 30.626,12.5 23,20.126 23,29.5 L 23,229.5 C 23,238.874 30.626,246.5 40,246.5 L 216,246.5 C 225.375,246.5 233,238.874 233,229.5 L 233,29.5 C 233,20.126 225.375,12.5 216,12.5 L 40,12.5 z"
       id="path1160"
       style="opacity:0.2" />
    <linearGradient
       x1="-406.5"
       y1="512.5"
       x2="-406.5"
       y2="278.5"
       id="XMLID_7_"
       gradientUnits="userSpaceOnUse"
       gradientTransform="matrix(1,0,0,-1,535.5,523.5)">
      <stop
         id="stop1162"
         style="stop-color:#494949;stop-opacity:1"
         offset="0" />
      <stop
         id="stop1163"
         style="stop-color:#000000;stop-opacity:1"
         offset="1" />
      <a:midPointStop
         offset="0"
         style="stop-color:#494949"
         id="midPointStop1164" />
      <a:midPointStop
         offset="0.5"
         style="stop-color:#494949"
         id="midPointStop1165" />
      <a:midPointStop
         offset="1"
         style="stop-color:#000000"
         id="midPointStop1166" />
    </linearGradient>
    <path
       d="M 41,11 C 31.626,11 24,18.626 24,28 L 24,228 C 24,237.374 31.626,245 41,245 L 217,245 C 226.375,245 234,237.374 234,228 L 234,28 C 234,18.626 226.375,11 217,11 L 41,11 z"
       id="path1167"
       style="fill:url(#linearGradient2523)" />
    <path
       d="M 28,228 C 28,234.627 33.373,240 40,240 L 216,240 C 222.627,240 228,234.627 228,228 L 228,28 C 228,21.373 222.627,16 216,16 L 40,16 C 33.373,16 28,21.373 28,28 L 28,228 z"
       id="path1168"
       style="fill:#ffffff" />
    <linearGradient
       x1="-506.4473"
       y1="494.4473"
       x2="-308.55249"
       y2="296.55249"
       id="XMLID_8_"
       gradientUnits="userSpaceOnUse"
       gradientTransform="matrix(1,0,0,-1,535.5,523.5)">
      <stop
         id="stop1170"
         style="stop-color:#ffffff;stop-opacity:1"
         offset="0" />
      <stop
         id="stop1171"
         style="stop-color:#dadada;stop-opacity:1"
         offset="1" />
      <a:midPointStop
         offset="0"
         style="stop-color:#FFFFFF"
         id="midPointStop1172" />
      <a:midPointStop
         offset="0.5"
         style="stop-color:#FFFFFF"
         id="midPointStop1173" />
      <a:midPointStop
         offset="1"
         style="stop-color:#DADADA"
         id="midPointStop1174" />
    </linearGradient>
    <path
       d="M 40,21 C 36.14,21 33,24.14 33,28 L 33,228 C 33,231.859 36.14,235 40,235 L 216,235 C 219.859,235 223,231.859 223,228 L 223,28 C 223,24.14 219.859,21 216,21 L 40,21 z"
       id="path1175"
       style="fill:url(#linearGradient2525)" />
    <rect
       width="256"
       height="256"
       x="0"
       y="0"
       id="_x3C_Slice_x3E_"
       style="fill:none" />
  </g>
  <g
     id="g2447">
    <path
       d="M 207.98377,163.96939 L 207.98377,166.00064 L 45.999397,166.00064 L 45.999397,163.96939 L 207.98377,163.96939 z M 207.98377,116.00064 L 207.98377,117.99283 L 45.999397,117.99283 L 45.999397,116.00064 L 207.98377,116.00064 z M 207.98377,131.9772 L 207.98377,133.96939 L 45.999397,133.96939 L 45.999397,131.9772 L 207.98377,131.9772 z M 207.98377,147.99283 L 207.98377,149.98502 L 45.999397,149.98502 L 45.999397,147.99283 L 207.98377,147.99283 z M 207.98377,179.98502 L 207.98377,181.9772 L 45.999397,181.9772 L 45.999397,179.98502 L 207.98377,179.98502 z"
       id="path2436"
       style="fill:#000000;stroke:none" />
    <path
       d="M 71.385983,121.28604 L 71.385983,177.04288 C 71.385963,178.74375 70.752011,180.52191 69.484127,182.37735 C 68.154358,184.07822 66.445782,185.40024 64.358395,186.34341 C 62.270982,187.28663 60.237699,187.75823 58.258541,187.75821 C 56.495841,187.75823 54.918694,187.26344 53.527096,186.27383 C 52.197343,185.25335 51.532467,183.89267 51.532467,182.1918 C 51.532467,180.33636 52.197343,178.5582 53.527096,176.85733 C 54.145583,176.1461 54.903232,175.4271 55.800045,174.70035 C 56.69685,173.97366 57.686432,173.27012 58.768795,172.58975 C 59.912992,172.06407 60.956692,171.69298 61.899899,171.47647 C 62.843084,171.26004 63.763086,171.1518 64.659908,171.15176 C 66.546287,171.1518 68.216207,171.69298 69.669674,172.7753 L 69.669674,121.28604 L 71.385983,121.28604 z"
       id="path2440"
       style="fill:#000000;stroke:none" />
    <path
       d="M -126.33766,-190.25172 L -126.33766,-134.49488 C -126.33768,-132.79401 -126.97163,-131.01585 -128.23952,-129.16041 C -129.56929,-127.45954 -131.27786,-126.13752 -133.36525,-125.19434 C -135.45266,-124.25113 -137.48595,-123.77953 -139.4651,-123.77955 C -141.2278,-123.77953 -142.80495,-124.27432 -144.19655,-125.26392 C -145.5263,-126.28441 -146.19118,-127.64509 -146.19118,-129.34595 C -146.19118,-131.2014 -145.5263,-132.97955 -144.19655,-134.68043 C -143.57806,-135.39166 -142.82041,-136.11065 -141.9236,-136.83741 C -141.02679,-137.5641 -140.03721,-138.26763 -138.95485,-138.94801 C -137.81065,-139.47369 -136.76695,-139.84478 -135.82375,-140.06129 C -134.88056,-140.27772 -133.96056,-140.38596 -133.06374,-140.38599 C -131.17736,-140.38596 -129.50744,-139.84478 -128.05397,-138.76246 L -128.05397,-190.25172 L -126.33766,-190.25172 z"
       transform="scale(-1,-1)"
       id="path2402"
       style="fill:#000000;stroke:none" />
    <path
       d="M 107,117.04688 L 107,181"
       id="path2407"
       style="fill:none;stroke:#000000;stroke-width:2" />
    <path
       d="M 193.40041,147.81863 L 198.14528,142.29419 C 200.74515,139.30419 202.0451,137.59231 202.04512,137.15854 C 202.0451,136.63884 201.09163,136.33534 199.18471,136.24805 C 195.32849,136.1621 192.40394,135.29591 190.41106,133.64948 C 188.19995,131.82851 187.0944,129.68353 187.09441,127.21454 C 187.0944,126.08785 187.31128,124.52739 187.74504,122.53314 C 185.62122,124.13727 184.16985,125.61112 183.39095,126.95468 C 182.35019,128.60112 181.82982,130.55104 181.82982,132.80444 C 181.82982,137.31129 183.97479,140.82101 188.26476,143.33362 C 189.4351,144.02658 190.47518,144.56811 191.38503,144.95822 C 186.70495,149.89881 184.42971,153.14868 184.55931,154.70782 L 184.55931,154.96967 C 186.50989,155.1429 187.91827,155.25067 188.78447,155.293 C 190.34493,155.46623 191.73215,155.76973 192.94615,156.20349 C 188.26607,163.39749 185.92604,168.05574 185.92604,170.17825 C 185.92604,172.95136 186.77107,174.33793 188.46114,174.33795 C 189.58784,174.33793 190.7357,173.77457 191.90474,172.64789 C 193.16236,171.52116 193.79117,170.41627 193.79118,169.33322 C 193.79117,168.46701 193.27113,167.31881 192.23105,165.88863 C 191.19095,164.4584 190.6709,163.4398 190.67091,162.83282 C 190.6709,162.52997 192.25253,160.45046 195.41579,156.59427 C 199.18601,152.04379 201.09229,149.70375 201.13463,149.57416 C 200.26842,149.1404 199.01211,148.7721 197.36571,148.46927 C 197.32205,148.46927 197.10517,148.43654 196.71507,148.37108 C 196.32494,148.30562 195.8373,148.22958 195.25214,148.14296 C 194.66695,148.05634 194.04971,147.94823 193.40041,147.81863 L 193.40041,147.81863 z"
       id="path2414"
       style="fill:#000000;stroke:none" />
    <path
       d="M 155.6875,65.28125 C 153.74006,65.281282 152.23193,66.853872 151.21875,70 C 150.47249,72.213567 150.125,74.596052 150.125,77.15625 C 150.125,82.275895 152.03988,85.893079 155.90625,88 C 155.2666,89.306161 154.6945,90.39633 154.1875,91.25 C 153.521,92.609869 153.18749,93.754073 153.1875,94.6875 C 153.18749,96.95394 154.13834,98.09375 156.03125,98.09375 C 157.7915,98.09375 159.26838,95.679202 160.46875,90.90625 C 161.45507,87.11964 161.93749,83.966486 161.9375,81.40625 C 161.93749,78.339864 161.54556,75.195498 160.71875,71.96875 C 159.59895,67.515656 157.92707,65.281282 155.6875,65.28125 z M 114.03125,65.53125 C 110.2318,65.53129 107.2858,68.532834 105.21875,74.5 C 103.68574,78.899645 102.90624,83.480858 102.90625,88.28125 C 102.90624,91.947443 103.21334,95.199515 103.8125,98 C 104.6792,102.26636 106.12276,104.96053 108.15625,106.09375 L 124.8125,106.09375 C 125.77887,104.86084 126.28122,103.33179 126.28125,101.53125 C 126.28122,100.49772 126.19573,99.803717 126.0625,99.4375 C 126.0289,99.370368 125.66859,98.730598 124.96875,97.53125 L 117.65625,97.53125 L 112.15625,97.53125 C 110.22245,97.430551 108.80651,96.323008 107.90625,94.15625 C 107.23994,92.623264 106.90624,90.703954 106.90625,88.4375 C 106.90624,86.171081 107.37916,83.94802 108.3125,81.78125 C 109.24582,79.614528 110.58141,77.783028 112.28125,76.25 C 113.31476,75.383332 114.06432,74.937531 114.53125,74.9375 C 115.69802,74.937531 116.28124,76.217071 116.28125,78.75 C 116.28124,78.950426 116.22338,79.784165 116.15625,81.25 C 116.12267,81.983463 116.12498,82.816186 116.125,83.75 C 116.12498,85.616679 116.375,87.00419 116.875,87.9375 C 117.37496,88.870846 118.12271,89.314836 119.15625,89.28125 C 119.78998,88.814348 120.59841,88.593768 121.53125,88.59375 C 121.96458,86.060811 122.15623,83.617169 122.15625,81.25 C 122.15623,70.783523 119.46438,65.53129 114.03125,65.53125 z M 155.15625,74.09375 C 155.25541,74.07751 155.35543,74.093753 155.46875,74.09375 C 156.1621,74.093773 156.81949,74.530948 157.40625,75.4375 C 157.91242,76.290386 158.15625,77.092306 158.15625,77.8125 C 158.15625,78.932311 157.73306,79.468769 156.90625,79.46875 C 156.23974,79.468769 155.60839,78.990742 154.96875,78.03125 C 154.40885,77.150737 154.12499,76.376487 154.125,75.65625 C 154.12499,74.746948 154.46215,74.20743 155.15625,74.09375 z M 146.1875,74.28125 C 145.93114,74.724897 145.4267,76.088542 144.65625,78.375 C 143.86298,80.895056 143.2164,82.628982 142.75,83.5625 C 141.98024,85.2658 141.24696,86.125012 140.5,86.125 C 139.42689,86.125012 138.48921,85.360486 137.71875,83.84375 C 137.27583,82.980015 136.76293,81.419246 136.15625,79.15625 C 135.54955,77.079854 135.07684,75.794679 134.75,75.28125 L 132.5,75.28125 C 132.68656,77.987873 132.80522,80.558224 132.875,83.03125 L 133.09375,90.1875 C 133.30381,94.29405 133.61113,96.470155 134.03125,96.75 C 134.38088,97.00706 134.85431,97.15625 135.4375,97.15625 C 136.23075,97.15625 136.82987,96.959127 137.25,96.5625 C 137.25,94.508873 137.40765,92.885136 137.6875,91.71875 C 138.80759,92.768355 139.85546,93.312503 140.8125,93.3125 C 142.4225,93.312503 143.69146,91.712021 144.625,88.5625 C 144.99812,92.062363 145.66867,95.026492 146.625,97.40625 L 149.78125,97.40625 C 148.63835,93.042648 148.09373,86.641917 148.09375,78.21875 C 148.09373,77.02889 148.10219,76.240398 148.125,75.84375 C 147.33173,75.120302 146.6774,74.584618 146.1875,74.28125 z"
       id="path2418"
       style="fill:#000000;stroke:none" />
  </g>
</svg>
